<?xml version="1.0" encoding="UTF-8"?>
<svg xmlns="http://www.w3.org/2000/svg" width="1000" height="236" viewBox="0 0 1000 236" fill="none">
  <g clip-path="url(#clip0_29_1197)">
    <path d="M748.81 64.93V137.22H726V129C720.72 135.83 710.95 138.62 703.5 138.62C685.5 138.62 668.43 124.35 668.43 100.92C668.43 77.49 685.5 63.22 703.5 63.22C710.95 63.22 720.72 66.01 726 72.84V64.93H748.81ZM725.07 100.92C725.07 91.61 717.16 84.63 708.47 84.63C699.78 84.63 691.71 91.77 691.71 100.92C691.71 110.07 699.47 117.21 708.47 117.21C717.47 117.21 725.07 110.23 725.07 100.92Z" fill="black"></path>
    <path d="M828.05 98.28V137.22H805.09V100.92C805.09 89.75 798.26 85.56 792.52 85.56C786.31 85.56 778.56 88.82 778.56 100.92V137.22H755.6V64.93H778.56V77.81C781.04 67.57 792.52 63.07 799.35 63.07C818.59 63.07 828.05 76.1 828.05 98.28Z" fill="black"></path>
    <path d="M913.97 26.77V137.22H891.16V129C885.88 135.83 876.11 138.62 868.66 138.62C850.66 138.62 833.59 124.35 833.59 100.92C833.59 77.49 850.66 63.22 868.66 63.22C876.11 63.22 885.88 66.01 891.16 72.84V26.77H913.97ZM890.23 100.92C890.23 91.61 882.32 84.63 873.63 84.63C864.94 84.63 856.87 91.77 856.87 100.92C856.87 110.07 864.63 117.21 873.63 117.21C882.63 117.21 890.23 110.23 890.23 100.92Z" fill="black"></path>
    <path d="M1000 64.93V137.22H977.19V129C971.92 135.83 962.14 138.62 954.69 138.62C936.69 138.62 919.62 124.35 919.62 100.92C919.62 77.49 936.69 63.22 954.69 63.22C962.14 63.22 971.91 66.01 977.19 72.84V64.93H1000ZM976.26 100.92C976.26 91.61 968.35 84.63 959.66 84.63C950.97 84.63 942.9 91.77 942.9 100.92C942.9 110.07 950.66 117.21 959.66 117.21C968.66 117.21 976.26 110.23 976.26 100.92Z" fill="black"></path>
    <path d="M336.32 26.77H359.28V137.22H336.32V26.77Z" fill="#FA6400"></path>
    <path d="M443.37 107.74H390.46C392.63 114.57 398.68 118.6 407.37 118.6C414.2 118.6 421.02 115.96 425.68 111.62L437.47 126.51C430.33 134.27 417.92 138.61 405.66 138.61C382.85 138.61 366.56 123.25 366.56 101.22C366.56 77.64 384.87 63.06 405.66 63.06C426.45 63.06 443.83 77.49 443.83 99.52C443.83 101.54 443.67 104.17 443.36 107.74H443.37ZM420.87 94.24C420.71 87.1 414.35 82.45 406.13 82.45C399.15 82.45 392.63 85.55 390.3 94.24H420.87Z" fill="#FA6400"></path>
    <path d="M523.28 107.74H470.37C472.54 114.57 478.59 118.6 487.28 118.6C494.11 118.6 500.93 115.96 505.59 111.62L517.38 126.51C510.24 134.27 497.83 138.61 485.57 138.61C462.76 138.61 446.47 123.25 446.47 101.22C446.47 77.64 464.78 63.06 485.57 63.06C506.36 63.06 523.74 77.49 523.74 99.52C523.74 101.54 523.58 104.17 523.27 107.74H523.28ZM500.78 94.24C500.62 87.1 494.26 82.45 486.04 82.45C479.06 82.45 472.54 85.55 470.21 94.24H500.78Z" fill="#FA6400"></path>
    <path d="M575.1 82.15H559.89V137.22H536.93V82.15H523.74V64.93H536.93V38.87H559.89V64.93H575.1V82.15Z" fill="#FA6400"></path>
    <path d="M285.52 51.39V74.01H320V95.22H285.52V137.49H261.03V30.02H329.05V51.39H285.52Z" fill="#FA6400"></path>
    <path d="M664.74 65.31C664.74 83.25 653.51 100.72 628.55 100.72H608.74V137.22H584.25V29.75H628.56C653.52 29.75 664.75 47.53 664.75 65.31H664.74ZM640.09 65.31C640.09 58.45 636.66 51.12 627.61 51.12H608.73V79.35H627.45C636.65 79.35 640.09 72.18 640.09 65.31Z" fill="black"></path>
    <path d="M278.33 165.4C287.94 165.4 292.18 172.4 292.18 179.47C292.18 186.54 287.93 193.41 278.33 193.41H269.59V208.48H261.03V165.4H278.33ZM277.9 185.78C282.03 185.78 283.56 182.53 283.56 179.46C283.56 176.39 282.02 173.08 278.02 173.08H269.58V185.77H277.89L277.9 185.78Z" fill="black"></path>
    <path d="M310.65 200.79H329.25V208.48H302.1V165.4H328.7V173.09H310.66V183.35H326.48V191.17H310.66V200.8L310.65 200.79Z" fill="black"></path>
    <path d="M368.53 165.4V173.09H356.83V208.48H348.27V173.09H336.57V165.4H368.53Z" fill="black"></path>
    <path d="M399.56 208.48L389.46 193.03H386.57V208.48H378.01V165.4H394.94C404.67 165.4 408.86 172.4 408.86 179.47C408.86 185.6 404.61 191.6 398.64 192.66L409.6 208.48H399.56ZM386.57 173.09V186.03H393.4C398.2 186.03 400.23 183.09 400.23 179.65C400.23 176.21 398.07 173.08 394.07 173.08H386.56L386.57 173.09Z" fill="black"></path>
    <path d="M417.41 186.97C417.41 174.71 426.89 164.65 438.96 164.65C451.03 164.65 460.57 174.72 460.57 186.97C460.57 199.22 450.96 209.23 438.96 209.23C426.96 209.23 417.41 199.16 417.41 186.97ZM451.95 186.97C451.95 179.22 446.53 172.84 438.96 172.84C431.39 172.84 425.97 179.22 425.97 186.97C425.97 194.72 431.33 201.04 438.96 201.04C446.59 201.04 451.95 194.72 451.95 186.97Z" fill="black"></path>
    <path d="M479.96 200.79H496.03V208.48H471.4V165.4H479.96V200.79Z" fill="black"></path>
    <path d="M514.06 200.79H532.66V208.48H505.51V165.4H532.11V173.09H514.07V183.35H529.89V191.17H514.07V200.8L514.06 200.79Z" fill="black"></path>
    <path d="M543.49 193.29V165.4H552.05V192.73C552.05 198.61 555.74 200.98 559.68 200.98C563.62 200.98 567.38 198.6 567.38 192.73V165.4H575.94V193.29C575.94 203.17 568.37 209.24 559.68 209.24C550.99 209.24 543.49 203.17 543.49 193.29Z" fill="black"></path>
    <path d="M637.75 208.48H629.01L625.93 181.78L615.59 203.6H608.88L598.41 181.78L595.33 208.48H586.59L591.82 165.4H599.09L612.21 193.66L625.2 165.4H632.59L637.76 208.48H637.75Z" fill="black"></path>
    <path d="M664.22 195.98H672.78C672.84 199.04 675.8 201.61 679.74 201.61C683.68 201.61 686.08 199.48 686.08 196.42C686.08 194.04 684.36 192.36 680.72 191.23L675.55 189.73C666.25 187.23 664.59 181.54 664.59 177.66C664.59 169.97 671.12 164.65 679.24 164.65C687.36 164.65 693.4 169.59 693.4 177.78H684.84C684.84 174.72 682.75 172.34 679.05 172.34C675.72 172.34 673.2 174.59 673.2 177.47C673.2 178.53 673.51 180.72 677.94 182.04L682.68 183.42C689.08 185.36 694.69 188.67 694.69 195.99C694.69 204.56 687.49 209.25 679.48 209.25C670.43 209.25 664.21 203.56 664.21 195.99L664.22 195.98Z" fill="black"></path>
    <path d="M702.94 186.97C702.94 174.71 712.42 164.65 724.49 164.65C736.56 164.65 746.1 174.72 746.1 186.97C746.1 199.22 736.49 209.23 724.49 209.23C712.49 209.23 702.94 199.16 702.94 186.97ZM737.48 186.97C737.48 179.22 732.06 172.84 724.49 172.84C716.92 172.84 711.5 179.22 711.5 186.97C711.5 194.72 716.86 201.04 724.49 201.04C732.12 201.04 737.48 194.72 737.48 186.97Z" fill="black"></path>
    <path d="M783.17 173.09H765.5V183.47H779.54V191.1H765.5V208.48H756.94V165.4H783.17V173.09Z" fill="black"></path>
    <path d="M821.52 165.4V173.09H809.82V208.48H801.26V173.09H789.56V165.4H821.52Z" fill="black"></path>
    <path d="M871.7 165.4H881L866.59 208.48H859.76L853.6 185.09L847.57 208.48H840.74L826.39 165.4H835.63L844.25 193.48L850.22 171.47H857.18L863.03 193.48L871.71 165.4H871.7Z" fill="black"></path>
    <path d="M913.75 208.48L910.3 198.16H894.41L891.02 208.48H881.91L897.73 165.4H906.97L922.73 208.48H913.74H913.75ZM896.94 190.6H907.78L902.36 174.28L896.94 190.6Z" fill="black"></path>
    <path d="M952.22 208.48L942.12 193.03H939.23V208.48H930.67V165.4H947.6C957.33 165.4 961.52 172.4 961.52 179.47C961.52 185.6 957.27 191.6 951.3 192.66L962.26 208.48H952.22ZM939.23 173.09V186.03H946.06C950.86 186.03 952.89 183.09 952.89 179.65C952.89 176.21 950.73 173.08 946.73 173.08H939.22L939.23 173.09Z" fill="black"></path>
    <path d="M981.4 200.79H1000V208.48H972.85V165.4H999.45V173.09H981.41V183.35H997.23V191.17H981.41V200.8L981.4 200.79Z" fill="black"></path>
    <path d="M226.64 127.21C226.64 187.19 178.01 235.81 118.02 235.81C58.0304 235.81 9.40039 187.19 9.40039 127.21C9.40039 67.23 58.0304 18.61 118.02 18.61C121.02 18.61 129.35 18.79 135.43 15.48C146.88 9.24001 150.91 0.0100098 150.91 0.0100098C150.91 0.0100098 152.45 12.04 155.88 20.46C158.1 25.91 164.16 28.87 164.95 29.25C201.44 46.76 226.63 84.05 226.63 127.21H226.64Z" fill="#FA6400"></path>
    <path d="M165.94 29.98C165.83 29.93 166.05 30.05 165.94 29.98V29.98Z" fill="black"></path>
    <path d="M183.5 103.7C182.42 99.21 181.09 94.94 179.64 91.09C175.8 80.92 172.21 77.57 168.38 73.54C161 65.8 148.94 62.8 137.7 61.87C131.29 61.34 125.15 61.48 120.29 61.81C120.87 58.94 122.59 56.21 122.59 56.21C122.59 56.21 114.97 57.75 110.71 62.82C110.6 62.84 110.51 62.85 110.43 62.86C109.54 58.92 110.43 54.08 110.43 54.08C110.43 54.08 106.79 56.92 103.73 63.04C103.57 63.35 103.37 63.67 103.14 63.98C98.0699 64.91 90.8099 66.56 83.4299 69.28C72.7899 73.2 61.8899 79.36 56.8399 88.86C54.2299 93.77 51.6899 97.97 50.7299 108.79C50.3699 112.84 50.2399 117.24 50.4099 121.79C51.1299 141.81 57.4999 164.75 74.9899 173.45C76.7699 174.34 78.6299 175.15 80.5999 175.87C90.7999 179.63 104.08 181.02 125.87 177.63C148.59 174.91 161.1 169.72 169.97 163C171.3 161.99 172.55 160.95 173.74 159.88C188.18 146.83 188.18 123.12 183.52 103.69L183.5 103.7Z" fill="white"></path>
    <path d="M179.64 91.08C181.1 94.93 182.42 99.2 183.5 103.69C187.36 100.07 194.5 91.05 192.33 75.22C190.25 60.05 176.45 50.27 164.17 50.49C153.92 50.67 144.03 56.87 137.69 61.87C148.93 62.8 161 65.8 168.37 73.54C172.2 77.56 175.79 80.92 179.63 91.09L179.64 91.08Z" fill="black"></path>
    <path d="M50.7202 108.79C51.6802 97.97 54.2202 93.76 56.8302 88.86C61.8702 79.36 72.7802 73.2 83.4202 69.28C75.9702 66.19 64.8202 62.92 54.9402 65.5C43.0602 68.6 32.4102 81.74 34.5002 96.91C36.6302 112.43 45.6302 119.23 50.4002 121.8C50.2402 117.25 50.3702 112.85 50.7202 108.8V108.79Z" fill="black"></path>
    <path d="M118.758 124.962C121.729 124.554 123.896 122.458 123.596 120.281C123.297 118.103 120.646 116.668 117.675 117.076C114.704 117.484 112.538 119.581 112.837 121.758C113.136 123.936 115.787 125.37 118.758 124.962Z" fill="black"></path>
    <path d="M169.98 113.91C167.33 107.12 163 98.52 154.26 92.35C151.18 90.18 146.02 87.38 137.5 88.55C132.17 89.28 128.7 92.46 126.79 95.82C124.03 100.68 124.65 106.46 127.89 112C132.6 120.05 144.09 126.2 150.07 127.93C153.41 128.9 160.74 130.69 166.52 129.95C174.53 128.92 172.13 119.4 169.98 113.91ZM143.85 111.01C140.31 111.5 137.05 109.02 136.56 105.49C136.07 101.95 138.55 98.69 142.09 98.2C145.63 97.71 148.89 100.19 149.38 103.73C149.87 107.27 147.39 110.53 143.85 111.01Z" fill="black"></path>
    <path d="M100.01 97.76C97.7398 96.3 94.2098 95.12 89.5198 95.15C84.3498 95.19 79.9198 97.84 77.8698 99.71C74.2798 102.98 72.0498 106.94 70.0498 110.94C67.9698 115.1 65.8898 124.71 66.0098 129.36C66.0898 132.41 66.4698 139.02 68.4798 141.32C69.2198 142.17 71.6098 142.87 72.7398 142.84C78.5598 142.64 85.1598 138.43 88.0298 136.46C91.5698 134.04 102.73 124.16 105.09 115.14C106.71 108.93 104.89 100.91 99.9998 97.76H100.01ZM90.8398 118.3C87.2998 118.79 84.0398 116.31 83.5498 112.77C83.0598 109.23 85.5398 105.97 89.0798 105.49C92.6198 105.01 95.8798 107.48 96.3698 111.01C96.8598 114.55 94.3798 117.81 90.8398 118.3Z" fill="black"></path>
    <path d="M142.09 108.5C144.172 108.5 145.86 106.812 145.86 104.73C145.86 102.648 144.172 100.96 142.09 100.96C140.008 100.96 138.32 102.648 138.32 104.73C138.32 106.812 140.008 108.5 142.09 108.5Z" fill="black"></path>
    <path d="M90.8403 115.54C92.9224 115.54 94.6103 113.852 94.6103 111.77C94.6103 109.688 92.9224 108 90.8403 108C88.7582 108 87.0703 109.688 87.0703 111.77C87.0703 113.852 88.7582 115.54 90.8403 115.54Z" fill="black"></path>
    <path d="M146.93 131.4C146.85 130.97 146.43 130.69 146 130.78C145.57 130.86 145.29 131.28 145.38 131.71C146.03 135.01 141.29 139.31 135.63 140.57C124.46 143.05 120.98 132.66 120.17 129.42C120.17 129.39 120.15 129.38 120.14 129.35C120.12 129.3 120.1 129.25 120.07 129.21C120.04 129.16 120.01 129.12 119.98 129.08C119.95 129.04 119.91 129.02 119.88 128.99C119.84 128.96 119.79 128.93 119.75 128.91C119.71 128.89 119.66 128.87 119.62 128.86C119.57 128.85 119.52 128.84 119.46 128.83C119.43 128.83 119.41 128.82 119.39 128.82C119.36 128.82 119.34 128.84 119.31 128.84C119.28 128.84 119.25 128.84 119.23 128.84C119.2 128.84 119.19 128.86 119.16 128.87C119.11 128.89 119.06 128.91 119.02 128.94C118.98 128.97 118.94 128.99 118.9 129.03C118.86 129.06 118.83 129.1 118.8 129.14C118.77 129.18 118.74 129.22 118.72 129.27C118.7 129.31 118.68 129.36 118.67 129.41C118.66 129.46 118.65 129.51 118.64 129.57C118.64 129.6 118.63 129.62 118.63 129.64C118.73 132.98 118.18 143.93 106.76 144.55C100.97 144.87 95.2403 142 94.9803 138.65C94.9503 138.22 94.5603 137.89 94.1303 137.92C93.7003 137.95 93.3703 138.33 93.4003 138.77C93.7203 142.78 99.5303 146.15 105.88 146.15C106.2 146.15 106.52 146.15 106.85 146.12C108.24 146.04 110.98 145.68 113.62 144.14C113.59 144.74 113.66 145.29 113.71 145.66C114.14 148.75 116.88 150.69 120.59 150.69C121.1 150.69 121.62 150.65 122.16 150.58C126.65 149.96 129.45 147.08 128.97 143.56C128.92 143.22 128.83 142.6 128.59 141.93C129.99 142.34 131.35 142.48 132.55 142.48C134 142.48 135.22 142.28 135.99 142.11C142.55 140.65 147.77 135.55 146.95 131.4H146.93ZM115.25 145.44C115.16 144.78 114.99 143.54 115.7 142.81C116.27 142.23 116.78 141.57 117.26 140.88C117.73 140.25 118.16 139.54 118.55 138.75C119.28 137.39 119.84 136.07 120.2 135.12C120.68 135.75 121.33 136.55 122.08 137.4C122.77 138.31 123.51 139.05 124.28 139.67C124.9 140.24 125.54 140.77 126.17 141.19C127.02 141.76 127.27 142.86 127.4 143.76C127.82 146.8 124.96 148.59 121.94 149C118.92 149.41 115.69 148.47 115.27 145.43L115.25 145.44Z" fill="black"></path>
    <path d="M192.73 167.83C177.1 161.99 172.3 163.09 169.96 163.01C161.09 169.74 148.58 174.92 125.86 177.64C104.07 181.02 90.7902 179.64 80.5902 175.88C69.7402 174.87 59.0402 173.97 52.8902 171.15C44.6802 167.38 34.4602 159.54 34.4602 159.54C34.4602 159.54 32.9902 144.07 33.3502 140.75C33.6202 138.28 35.7502 132.83 33.1702 130.43C28.6302 126.22 22.2702 131.81 20.6402 134.48C18.6102 137.8 19.5302 145.35 19.5302 145.35C19.5302 145.35 14.7802 141.27 10.3202 140.79C10.2902 140.79 10.2602 140.79 10.2302 140.78C8.96023 140.66 7.72023 140.83 6.62023 141.48C1.14023 144.72 4.04023 149.95 4.04023 149.95C4.04023 149.95 -0.00976562 150.5 -0.00976562 156.4C-0.00976562 158.98 2.39023 160.45 2.39023 160.45C2.39023 160.45 -0.929765 165.79 2.94023 171.14C3.83023 172.37 6.64023 173.82 8.47023 173.72C11.9702 173.54 15.4702 170.59 15.4702 170.59C15.4702 170.59 17.7002 172.93 21.0702 176.25C27.1102 182.18 37.0102 190.98 44.0302 195.46C52.6302 200.96 66.3302 207.98 68.4302 209.12C67.8802 210.14 66.7002 215.19 66.1802 222.82C80.5302 230.64 96.8302 235.31 114.17 235.92C115.46 235.85 116.74 235.81 118.01 235.81C119.41 235.81 120.86 235.85 122.33 235.91C148.44 234.9 172.19 224.68 190.4 208.4C189.47 205.58 188.67 203.57 188.67 203.57L192.39 206.57C200.6 198.86 207.61 189.88 213.11 179.95C207.44 175.38 201.12 170.97 192.72 167.83H192.73Z" fill="black"></path>
    <path d="M14.4601 154.34C11.4601 154.34 8.47011 152.11 8.33011 152C8.22011 151.92 8.20011 151.76 8.28011 151.65C8.36011 151.54 8.52011 151.52 8.63011 151.6C8.67011 151.63 12.5201 154.5 15.6701 153.69C17.0101 153.34 18.0501 152.36 18.7501 150.78C18.8101 150.65 18.9601 150.6 19.0801 150.65C19.2101 150.71 19.2601 150.86 19.2101 150.98C18.4401 152.71 17.2901 153.79 15.7901 154.18C15.3501 154.29 14.9101 154.34 14.4601 154.34Z" fill="white"></path>
    <path d="M14.03 168.63C14.03 168.63 13.96 168.63 13.92 168.6C13.79 168.54 13.74 168.39 13.8 168.26C14.52 166.77 14.66 165.43 14.21 164.27C13.54 162.53 11.74 161.79 11.72 161.78C11.59 161.73 11.53 161.58 11.58 161.45C11.63 161.32 11.78 161.26 11.91 161.31C11.99 161.34 13.92 162.13 14.68 164.08C15.18 165.37 15.04 166.85 14.26 168.47C14.22 168.56 14.13 168.61 14.03 168.61V168.63Z" fill="white"></path>
    <path d="M11.7502 161.83C8.99021 161.83 6.43021 161.3 6.24021 161.26C6.10021 161.23 6.02021 161.1 6.05021 160.96C6.08021 160.82 6.21021 160.74 6.35021 160.77C6.44021 160.79 15.3202 162.63 17.7702 159.48C17.8602 159.37 18.0102 159.35 18.1202 159.44C18.2302 159.53 18.2502 159.68 18.1602 159.79C16.9002 161.4 14.2402 161.84 11.7502 161.84V161.83Z" fill="white"></path>
    <path d="M152.38 204.67C143.92 203.86 107.05 201.35 98.39 221.99C97.36 224.44 96.66 229.41 96.29 233.81C103.33 235.24 110.61 236 118.07 236C137.04 236 154.87 231.13 170.39 222.58C166.24 212.86 160.74 205.47 152.37 204.68L152.38 204.67Z" fill="white"></path>
    <path d="M127.38 143.77C127.26 142.87 127.01 141.77 126.15 141.2C125.52 140.78 124.88 140.25 124.26 139.68C123.49 139.06 122.75 138.31 122.06 137.41C121.31 136.56 120.66 135.76 120.18 135.13C119.82 136.08 119.26 137.39 118.53 138.76C118.15 139.55 117.72 140.26 117.24 140.89C116.77 141.58 116.25 142.24 115.68 142.82C114.97 143.55 115.14 144.78 115.23 145.45C115.65 148.49 118.88 149.44 121.9 149.02C124.92 148.61 127.78 146.82 127.36 143.78L127.38 143.77Z" fill="#FF7C7C"></path>
  </g>
  <defs>
    <clipPath id="clip0_29_1197">
      <rect width="1000" height="236" fill="white"></rect>
    </clipPath>
  </defs>
</svg>
